<svg width="100" height="26" viewBox="0 0 100 26" fill="none" xmlns="http://www.w3.org/2000/svg">
<g clip-path="url(#clip0_4908_13674)">
<mask id="mask0_4908_13674" style="mask-type:alpha" maskUnits="userSpaceOnUse" x="0" y="0" width="99" height="26">
<path fill-rule="evenodd" clip-rule="evenodd" d="M19.5083 3.82933C20.5688 3.82656 21.4267 2.9509 21.4118 1.88556C21.3968 0.82985 20.5077 -0.0240638 19.4471 0.000517739C18.4234 0.0236811 17.5899 0.877596 17.5872 1.90606C17.5845 2.97542 18.4397 3.83205 19.5083 3.82933ZM10.8895 7.8314V0.870623H13.901V20.3175H10.9357L10.8473 18.6807C10.7762 18.7374 10.7146 18.7848 10.66 18.8269C10.5623 18.9022 10.4865 18.9605 10.4177 19.0244C7.00504 22.1726 2.07909 20.9381 0.584874 16.5283C-0.251301 14.0621 -0.220031 11.5755 0.86768 9.19255C2.63383 5.32007 7.31231 4.45392 10.3851 7.37842C10.4604 7.44944 10.5375 7.51805 10.6626 7.62926C10.7246 7.68433 10.7983 7.74992 10.8895 7.8314ZM10.8932 12.6363C10.8913 12.8629 10.8895 13.0895 10.8895 13.316L10.8908 13.3173C10.8908 13.5221 10.8869 13.7271 10.8829 13.9321C10.8739 14.3948 10.8649 14.8572 10.9017 15.3156C10.9561 16.0031 10.6719 16.4778 10.1756 16.9034C7.58832 19.1213 4.21101 18.015 3.44006 14.6963C3.15453 13.4674 3.21303 12.2629 3.63453 11.0776C4.12261 9.70268 5.00773 8.72331 6.49243 8.47236C8.1498 8.19268 9.53936 8.76698 10.6189 10.0355C10.8011 10.2497 10.8636 10.6166 10.8772 10.918C10.9026 11.4899 10.8978 12.0632 10.8932 12.6363ZM98.3251 6.72346V6.72482C98.334 7.25923 98.3417 7.73024 98.2914 8.1941C98.2684 8.40281 97.957 8.7138 97.7466 8.74246C97.4571 8.78146 97.1616 8.77649 96.8668 8.77153C96.5737 8.76663 96.28 8.76172 95.9922 8.79972C95.7819 8.82838 95.4498 9.14894 95.4474 9.33992C95.412 11.6874 95.386 14.0376 95.4445 16.3837C95.4841 17.9346 96.4218 18.3697 98.1762 17.6291C98.2335 17.8077 98.2932 17.9852 98.3523 18.1623C98.5172 18.653 98.6809 19.1409 98.7919 19.641C98.8274 19.7992 98.5704 20.1198 98.373 20.218C96.9034 20.9491 95.3836 21.0364 93.9123 20.2807C92.7429 19.6806 92.3759 18.5525 92.3653 17.3167C92.3434 14.7823 92.3322 12.2466 92.3718 9.71089C92.3824 8.99755 92.217 8.72609 91.4541 8.75339C89.991 8.80385 89.9898 8.76019 89.9887 7.26248V6.06218H92.334V2.24152H95.3872V6.02259H98.3145L98.3174 6.02395C98.3174 6.27071 98.321 6.50252 98.3251 6.72346ZM84.6965 18.6316C84.5423 18.752 84.417 18.8496 84.3107 18.9332L84.3101 18.9335C84.1482 19.0599 84.027 19.1545 83.9053 19.2481C82.2768 20.4921 80.4509 21.0227 78.4205 20.6694C76.3352 20.3066 75.1399 19.098 75.0843 16.9893C75.0181 14.4588 75.0323 11.9262 75.0465 9.37089C75.0524 8.29136 75.0583 7.20729 75.0583 6.11802H78.0944V6.97737C78.0944 7.6744 78.0938 8.37149 78.0932 9.06858C78.0914 10.9604 78.0891 12.8523 78.1015 14.7441C78.1038 15.2734 78.1558 15.8135 78.2711 16.3291C78.4631 17.1884 79.038 17.7463 79.8919 17.9141C81.6144 18.2537 83.1277 17.8036 84.3201 16.4969C84.5405 16.2568 84.6475 15.8299 84.6504 15.4889C84.6705 13.3064 84.6688 11.124 84.6664 8.94153C84.6658 8.29497 84.6652 7.64846 84.6652 7.00189V6.09893H87.6646V20.2998H84.6965V18.6329V18.6316ZM61.1018 6.46996C58.3895 7.83672 57.3873 10.2961 57.2934 12.6844C57.2952 17.2518 59.7764 20.2057 63.6078 20.724C67.2932 21.2232 70.4954 19.0885 71.5028 15.4602C72.3975 12.2411 71.3155 8.66877 68.842 6.98281C66.385 5.30783 63.7301 5.14551 61.1018 6.46996ZM68.5513 12.7282C68.5808 12.9499 68.6121 13.1865 68.6517 13.4442C68.5991 13.6383 68.5513 13.85 68.5005 14.0719C68.3811 14.5971 68.2487 15.1791 68.0153 15.718C67.3642 17.2225 66.1717 18.026 64.4995 18.0137C62.8573 18.0027 61.7287 17.1803 61.0569 15.7207C60.3555 14.1958 60.3105 12.6244 60.8979 11.0571C61.5857 9.21985 62.9873 8.29639 64.8215 8.4164C66.5363 8.5269 67.9013 9.70675 68.3456 11.51C68.4396 11.8885 68.4916 12.2775 68.5513 12.7282ZM59.7474 25.9946V21.7947C60.128 21.9456 60.5044 22.0926 60.8784 22.2385C61.7884 22.5936 62.6795 22.9416 63.5587 23.3197C64.165 23.5802 64.701 23.5925 65.3137 23.3265C66.1853 22.9485 67.0711 22.6035 67.9799 22.2498C68.3628 22.1007 68.7498 21.9501 69.141 21.7947V26C68.7498 25.8213 68.3646 25.6475 67.984 25.4759L67.9834 25.4755C67.0433 25.0515 66.1321 24.6407 65.2351 24.2009C64.6815 23.9294 64.2111 23.9267 63.6551 24.2009C62.7663 24.6371 61.8617 25.0435 60.9286 25.4626C60.5404 25.6372 60.1469 25.8139 59.7474 25.9959V25.9946ZM55.0214 14.2613H44.1948C44.4137 15.8027 45.0363 16.9825 46.3171 17.6496C48.5714 18.8253 50.6489 18.2156 52.6829 16.7261L53.2256 17.5126C53.4945 17.9023 53.7663 18.2958 54.0482 18.7039C53.122 19.6505 52.0208 20.1375 50.827 20.4621C47.4402 21.3815 44.0996 20.3544 42.309 17.8009C39.5462 13.863 40.9929 6.8615 46.8325 5.74303C50.6448 5.01191 54.1663 7.49033 54.8666 11.4787C54.9599 12.0145 54.9989 12.5613 55.0373 13.1064C55.0462 13.2259 55.0545 13.3455 55.0633 13.4647C55.0751 13.6166 55.0615 13.7709 55.0456 13.9525C55.0367 14.0464 55.0279 14.1479 55.0214 14.26V14.2613ZM44.2437 12.0475H51.9759C52.0262 9.91416 50.4572 8.27328 48.3199 8.16822C46.1214 8.05914 44.4028 9.65913 44.2437 12.0475ZM25.0757 6.10035V20.3066H28.0928V19.3832C28.0931 18.6352 28.1018 17.8867 28.1104 17.1382C28.1314 15.3249 28.1523 13.5111 28.056 11.7037C27.9786 10.2702 28.6557 9.53356 29.7366 8.92251C30.6081 8.43011 31.5448 8.31961 32.5211 8.44919C33.5897 8.58965 34.2954 9.18575 34.517 10.2319C34.6325 10.7748 34.6706 11.3423 34.6747 11.8988C34.6855 13.6852 34.6835 15.471 34.6816 17.257C34.6809 17.9516 34.6802 18.6462 34.6802 19.3409V20.3053H37.689C37.689 19.2048 37.6981 18.1093 37.7071 17.0177C37.7286 14.4304 37.75 11.8638 37.6496 9.30169C37.5693 7.26112 36.3797 6.16175 34.4232 5.77435C32.3552 5.36515 30.5224 5.92982 28.8718 7.18608C28.7406 7.28612 28.6145 7.39289 28.4552 7.52786C28.3667 7.60272 28.268 7.68628 28.1526 7.78218C28.1333 7.48567 28.1158 7.22012 28.0995 6.97229C28.0791 6.66266 28.0606 6.38068 28.0424 6.10035H25.0757ZM18.01 20.2971V6.12222H20.9807V20.2985H18.01V20.2971Z" fill="white" style="fill:white;fill:white;fill-opacity:1;"/>
</mask>
<g mask="url(#mask0_4908_13674)">
<path d="M110.064 -2.59961H-6.93457V28.5999H110.064V-2.59961Z" fill="white" style="fill:white;fill:white;fill-opacity:1;"/>
<path d="M101.462 -26H-0.634766V89.4135H101.462V-26Z" fill="white" style="fill:white;fill:white;fill-opacity:1;"/>
</g>
</g>
<defs>
<clipPath id="clip0_4908_13674">
<rect width="99.2718" height="26" fill="white" style="fill:white;fill:white;fill-opacity:1;"/>
</clipPath>
</defs>
</svg>
