<svg width="107" height="26" viewBox="0 0 107 26" fill="none" xmlns="http://www.w3.org/2000/svg">
<g clip-path="url(#clip0_4910_13681)">
<path d="M8.67481 9.03256C11.4132 10.1964 13.1099 11.4877 13.1099 14.3218C13.1099 17.2172 10.8982 19.0874 7.47627 19.0874C4.70325 19.0874 2.47744 17.8418 1.36885 15.6693L1.18945 15.3191L4.44977 13.4458L4.66342 13.7919C5.39749 14.9819 6.21814 15.4891 7.40874 15.4891C8.43496 15.4891 9.1244 15.0382 9.1244 14.3665C9.1244 13.6223 8.62531 13.3434 7.08271 12.6738L6.29876 12.3403C4.20652 11.456 2.26836 10.2273 2.26836 7.25129C2.26836 4.57679 4.33564 2.70898 7.29591 2.70898C9.53868 2.70898 11.0757 3.56992 12.1338 5.41748L12.3301 5.76052L9.17115 7.77361L8.95357 7.38729C8.42541 6.45048 7.92803 6.2626 7.29603 6.2626C6.6353 6.2626 6.20961 6.62386 6.20961 7.18432C6.20961 7.82822 6.52322 8.11081 7.88997 8.69805L8.67481 9.03256ZM31.7525 9.58055L34.0542 3.2164H38.0046L32.1499 19.35H31.2725L27.7211 11.7942C27.5559 11.448 27.3857 11.0181 27.2389 10.6242C27.0888 11.0188 26.9143 11.4497 26.7489 11.7959L23.0587 19.35H22.1871L16.2386 3.2164H20.4587L22.7856 9.58055C22.9342 9.98645 23.0863 10.4813 23.2196 10.9404C23.3776 10.4665 23.5678 9.9549 23.7665 9.54245L26.8226 3.08351H27.6681L30.7717 9.54309C30.9695 9.95517 31.1604 10.4672 31.3179 10.9411C31.4517 10.4813 31.6051 9.98645 31.7525 9.58055ZM42.6116 18.8867V2.88676H46.5988V18.8867H42.6116ZM59.6717 13.511V9.93539H67.0753V17.1062L66.9222 17.2313C66.0753 17.9209 63.8298 19.0875 60.7878 19.0875C55.6561 19.0875 52.0735 15.7155 52.0735 10.8875C52.0735 6.14874 55.5305 2.70906 60.2936 2.70906C62.9129 2.70906 64.8328 3.44122 66.1618 4.94777L66.4213 5.2421L63.7036 7.91009L63.4084 7.60851C62.6494 6.83241 61.8631 6.35164 60.2935 6.35164C57.8537 6.35164 56.1495 8.21675 56.1495 10.8875C56.1495 13.6695 57.9693 15.4676 60.7877 15.4676C61.7225 15.4676 62.6958 15.308 63.3582 15.0527V13.5112L59.6717 13.511ZM79.8771 13.511V9.93539H87.2807V17.1062L87.1276 17.2313C86.28 17.9209 84.0352 19.0875 80.9939 19.0875C75.8622 19.0875 72.2789 15.7155 72.2789 10.8875C72.2789 6.14874 75.7365 2.70906 80.4983 2.70906C83.119 2.70906 85.0389 3.44122 86.3672 4.94777L86.6275 5.2421L83.9105 7.91009L83.6146 7.60851C82.8552 6.83241 82.0686 6.35164 80.4982 6.35164C78.0592 6.35164 76.355 8.21675 76.355 10.8875C76.355 13.6695 78.1755 15.4676 80.9939 15.4676C81.9287 15.4676 82.9013 15.308 83.5637 15.0527V13.5112L79.8771 13.511ZM101.89 2.88684H106.058L100.337 13.5337V18.8868H96.3288V13.761L90.2353 2.88684H94.6821L97.4983 7.98822C97.8012 8.54317 98.1175 9.27676 98.3567 9.87225C98.5851 9.28156 98.8873 8.55457 99.188 7.99308L101.89 2.88684Z" fill="white" style="fill:white;fill:white;fill-opacity:1;"/>
</g>
<defs>
<clipPath id="clip0_4910_13681">
<rect width="105.7" height="17.5" fill="white" style="fill:white;fill:white;fill-opacity:1;" transform="translate(0.570312 2.5)"/>
</clipPath>
</defs>
</svg>
