<svg width="81" height="26" viewBox="0 0 81 26" fill="none" xmlns="http://www.w3.org/2000/svg">
<path d="M1.59964 23.6035C3.64559 25.301 5.92253 26 8.66147 26C12.6214 26 17.7692 24.602 17.7692 18.0449V3.39942H12.7204V5.29667C11.4334 3.69899 9.78344 3 8.00148 3C4.00858 3 0.972656 5.79595 0.972656 11.0883C0.972656 16.5137 4.10758 19.2098 8.00148 19.2098C9.81644 19.2098 11.4004 18.4443 12.7204 16.8799V18.1114C12.7204 21.1071 10.3444 21.8061 8.66147 21.8061C6.81351 21.8061 5.03156 21.2735 3.81059 19.9421L1.59964 23.6035ZM12.7204 13.2518C12.0934 14.1172 10.7404 14.6831 9.68444 14.6831C7.67149 14.6831 6.18653 13.4515 6.18653 11.0883C6.18653 8.75832 7.67149 7.52677 9.68444 7.52677C10.7404 7.52677 12.0934 8.09262 12.7204 8.95803V13.2518Z" fill="white" style="fill:white;fill:white;fill-opacity:1;"/>
<path d="M19.777 11.4211C19.777 16.6469 23.5719 19.8755 28.4888 19.8755C30.9308 19.8755 33.5707 19.1766 35.1547 17.7453L33.0097 14.5499C32.1187 15.3488 30.5348 15.9146 29.1158 15.9146C26.7399 15.9146 25.3539 14.5499 25.0569 13.0521H36.4086V11.9537C36.4086 6.49494 32.9767 3 28.2578 3C23.2749 3 19.777 6.76122 19.777 11.4211ZM28.2578 6.96093C30.6008 6.96093 31.4257 8.5919 31.5577 9.72359H24.9909C25.1889 8.55861 26.0469 6.96093 28.2578 6.96093Z" fill="white" style="fill:white;fill:white;fill-opacity:1;"/>
<path d="M49.0424 19.4761H54.1243V8.09262C54.1243 5.13025 52.4743 3 48.8444 3C46.1715 3 44.2905 4.23155 43.3336 5.36324V3.39942H38.2517V19.4761H43.3336V9.09117C43.9275 8.3589 44.9175 7.52677 46.4355 7.52677C48.0194 7.52677 49.0424 8.22576 49.0424 10.1896V19.4761Z" fill="white" style="fill:white;fill:white;fill-opacity:1;"/>
<path d="M57.1527 19.4761H62.2346V3.39942H57.1527V19.4761Z" fill="white" style="fill:white;fill:white;fill-opacity:1;"/>
<path d="M64.2022 11.4211C64.2022 16.6469 67.9971 19.8755 72.914 19.8755C75.3559 19.8755 77.9958 19.1766 79.5798 17.7453L77.4349 14.5499C76.5439 15.3488 74.9599 15.9146 73.5409 15.9146C71.165 15.9146 69.779 14.5499 69.4821 13.0521H80.8338V11.9537C80.8338 6.49494 77.4019 3 72.683 3C67.7001 3 64.2022 6.76122 64.2022 11.4211ZM72.683 6.96093C75.0259 6.96093 75.8509 8.5919 75.9829 9.72359H69.4161C69.614 8.55861 70.472 6.96093 72.683 6.96093Z" fill="white" style="fill:white;fill:white;fill-opacity:1;"/>
</svg>
