<svg width="131" height="26" viewBox="0 0 131 26" fill="none" xmlns="http://www.w3.org/2000/svg">
<path fill-rule="evenodd" clip-rule="evenodd" d="M4.82411 4.11891V19.1904H0V4.11891H4.82411ZM12.4196 9.45476V19.1904H7.59549V4.11891H12.4196V5.95993C12.9417 5.33586 13.6517 4.81059 14.5497 4.38414C15.4477 3.95769 16.4815 3.74446 17.6509 3.74446C19.3216 3.74446 20.5746 4.17611 21.41 5.03942C22.2453 5.90272 22.663 7.06247 22.663 8.51865V19.1904H17.8389V10.4845C17.8389 8.82028 17.014 7.98818 15.3642 7.98818C14.1947 7.98818 13.2132 8.47704 12.4196 9.45476ZM34.9103 18.9251C33.8766 19.3516 32.6497 19.5648 31.2296 19.5648C29.8721 19.5648 28.5513 19.3568 27.2669 18.9407C25.9826 18.5247 24.9436 17.963 24.15 17.2557L26.1549 13.9481C26.7396 14.4682 27.5593 14.931 28.6139 15.3367C29.6685 15.7423 30.624 15.9452 31.4802 15.9452C32.1693 15.9452 32.681 15.8463 33.0151 15.6487C33.3493 15.4511 33.5163 15.1755 33.5163 14.8218C33.5163 14.4682 33.3023 14.1977 32.8742 14.0105C32.446 13.8233 31.7934 13.6569 30.9163 13.5113C29.6424 13.3032 28.6035 13.0692 27.7994 12.8092C26.9954 12.5491 26.2802 12.0967 25.6537 11.4518C25.0271 10.8069 24.7139 9.89161 24.7139 8.70587C24.7139 7.81136 24.9697 6.98446 25.4814 6.22516C25.993 5.46587 26.7344 4.8626 27.7055 4.41534C28.6766 3.96809 29.8408 3.74446 31.1983 3.74446C32.4095 3.74446 33.5529 3.92128 34.6284 4.27492C35.7039 4.62857 36.6698 5.11743 37.526 5.7415L35.6778 8.9243C35.1975 8.46664 34.5501 8.07659 33.7356 7.75415C32.9212 7.43171 32.0858 7.27049 31.2296 7.27049C30.6448 7.27049 30.1802 7.3641 29.8356 7.55133C29.491 7.73855 29.3187 7.98818 29.3187 8.30022C29.3187 8.63306 29.5015 8.88269 29.8669 9.04911C30.2324 9.21553 30.8537 9.37155 31.7308 9.51717C32.9838 9.72519 34.0384 9.96962 34.8946 10.2505C35.7509 10.5313 36.5027 11.015 37.1501 11.7014C37.7975 12.3879 38.1212 13.3448 38.1212 14.5722C38.1212 15.5291 37.8445 16.3872 37.291 17.1465C36.7376 17.9058 35.944 18.4987 34.9103 18.9251ZM47.7841 19.284C47.1785 19.4712 46.4476 19.5648 45.5914 19.5648C44.046 19.5648 42.8713 19.1904 42.0672 18.4415C41.2632 17.6926 40.8612 16.59 40.8612 15.1339V8.30022H38.3552V4.11891H40.8612V0H45.654V4.11891H48.7239V8.30022H45.654V13.7921C45.654 14.2497 45.7741 14.619 46.0142 14.8998C46.2544 15.1807 46.5833 15.3211 47.001 15.3211C47.2516 15.3211 47.497 15.2847 47.7371 15.2119C47.9773 15.1391 48.1392 15.0506 48.2227 14.9466L49.1624 18.5663C48.8492 18.8575 48.3898 19.0967 47.7841 19.284ZM57.3375 19.0499C56.4917 19.3932 55.5885 19.5648 54.6278 19.5648C53.8133 19.5648 53.0041 19.3776 52.2001 19.0031C51.3961 18.6287 50.733 18.067 50.2109 17.3181C49.6888 16.5692 49.4278 15.6643 49.4278 14.6034C49.4278 12.9392 49.9499 11.7326 50.9941 10.9837C52.0382 10.2349 53.2495 9.86041 54.6278 9.86041C55.6511 9.86041 56.5804 10.0112 57.4158 10.3129C58.2511 10.6145 58.8881 11.0462 59.3266 11.6078V9.70439C59.3266 9.03871 59.0551 8.50824 58.5122 8.113C57.9692 7.71775 57.2174 7.52012 56.2567 7.52012C55.5049 7.52012 54.7531 7.65534 54.0013 7.92577C53.2495 8.19621 52.5708 8.59145 51.9651 9.11152L50.2423 6.08475C51.1611 5.29425 52.2262 4.70658 53.4374 4.32173C54.6487 3.93688 55.8704 3.74446 57.1025 3.74446C59.17 3.74446 60.8616 4.20732 62.1772 5.13303C63.4929 6.05874 64.1507 7.60333 64.1507 9.7668V19.1904H59.3266V17.6926C58.8463 18.2542 58.1832 18.7067 57.3375 19.0499ZM54.9097 15.9608C55.3692 16.2624 55.9435 16.4132 56.6326 16.4132C57.1965 16.4132 57.7238 16.3196 58.2146 16.1324C58.7053 15.9452 59.076 15.6747 59.3266 15.3211V13.9793C59.076 13.6465 58.7053 13.3864 58.2146 13.1992C57.7238 13.012 57.1965 12.9184 56.6326 12.9184C55.9435 12.9184 55.3692 13.0692 54.9097 13.3708C54.4503 13.6725 54.2206 14.1041 54.2206 14.6658C54.2206 15.2275 54.4503 15.6591 54.9097 15.9608ZM71.7462 9.45476V19.1904H66.9221V4.11891H71.7462V5.95993C72.143 5.43987 72.8008 4.94061 73.7197 4.46215C74.6386 3.98369 75.641 3.74446 76.727 3.74446C77.8129 3.74446 78.7213 3.97329 79.4523 4.43094C80.1832 4.8886 80.7053 5.55428 81.0185 6.42799C81.4989 5.6999 82.2141 5.07062 83.1643 4.54016C84.1145 4.00969 85.1431 3.74446 86.2499 3.74446C87.6908 3.74446 88.8081 4.12411 89.6017 4.8834C90.3953 5.64269 90.7921 6.77123 90.7921 8.26901V19.1904H85.9993V10.0164C85.9993 9.39235 85.8374 8.89829 85.5137 8.53425C85.19 8.1702 84.6836 7.98818 83.9944 7.98818C83.4097 7.98818 82.8824 8.1338 82.4125 8.42504C81.9426 8.71627 81.5615 9.05951 81.2691 9.45476V19.1904H76.445V10.0164C76.445 9.39235 76.2832 8.89829 75.9595 8.53425C75.6358 8.1702 75.1294 7.98818 74.4402 7.98818C73.4378 7.98818 72.5398 8.47704 71.7462 9.45476ZM100.533 19.0499C99.6876 19.3932 98.7843 19.5648 97.8237 19.5648C97.0092 19.5648 96.2 19.3776 95.396 19.0031C94.592 18.6287 93.9289 18.067 93.4068 17.3181C92.8847 16.5692 92.6237 15.6643 92.6237 14.6034C92.6237 12.9392 93.1458 11.7326 94.1899 10.9837C95.2341 10.2349 96.4454 9.86041 97.8237 9.86041C98.847 9.86041 99.7763 10.0112 100.612 10.3129C101.447 10.6145 102.084 11.0462 102.522 11.6078V9.70439C102.522 9.03871 102.251 8.50824 101.708 8.113C101.165 7.71775 100.413 7.52012 99.4526 7.52012C98.7008 7.52012 97.949 7.65534 97.1972 7.92577C96.4454 8.19621 95.7667 8.59145 95.161 9.11152L93.4381 6.08475C94.357 5.29425 95.4221 4.70658 96.6333 4.32173C97.8446 3.93688 99.0663 3.74446 100.298 3.74446C102.366 3.74446 104.057 4.20732 105.373 5.13303C106.689 6.05874 107.347 7.60333 107.347 9.7668V19.1904H102.522V17.6926C102.042 18.2542 101.379 18.7067 100.533 19.0499ZM98.1056 15.9608C98.5651 16.2624 99.1394 16.4132 99.8285 16.4132C100.392 16.4132 100.92 16.3196 101.41 16.1324C101.901 15.9452 102.272 15.6747 102.522 15.3211V13.9793C102.272 13.6465 101.901 13.3864 101.41 13.1992C100.92 13.012 100.392 12.9184 99.8285 12.9184C99.1394 12.9184 98.5651 13.0692 98.1056 13.3708C97.6462 13.6725 97.4165 14.1041 97.4165 14.6658C97.4165 15.2275 97.6462 15.6591 98.1056 15.9608ZM114.942 9.64198V19.1904H110.118V4.11891H114.942V6.02234C115.464 5.37746 116.164 4.83659 117.041 4.39974C117.918 3.96289 118.795 3.74446 119.672 3.74446H122.131V0H126.924V3.74446H130.027V8.14177C128.912 8.15145 127.877 8.1604 126.924 8.16861V13.7921C126.924 14.2497 127.044 14.619 127.284 14.8998C127.524 15.1807 127.853 15.3211 128.271 15.3211C128.521 15.3211 128.767 15.2847 129.007 15.2119C129.247 15.1391 129.409 15.0506 129.492 14.9466L130.432 18.5663C130.119 18.8575 129.659 19.0967 129.054 19.284C128.448 19.4712 127.717 19.5648 126.861 19.5648C125.316 19.5648 124.141 19.1904 123.337 18.4415C122.533 17.6926 122.131 16.59 122.131 15.1339V11.717V8.20944C119.872 8.22835 118.656 8.23781 118.482 8.23781C117.814 8.23781 117.13 8.36783 116.43 8.62786C115.73 8.88789 115.234 9.22593 114.942 9.64198Z" fill="white" style="fill:white;fill:white;fill-opacity:1;"/>
</svg>
