<svg width="129" height="134" viewBox="0 0 129 134" fill="none" xmlns="http://www.w3.org/2000/svg">
<path d="M15.2672 123.256L20.3565 8.32812H96.4124C100.619 8.32812 104.314 11.1224 105.46 15.1703L128.24 121.111C129.939 127.113 125.43 133.075 119.192 133.075H24.6614C19.3048 133.075 15.0302 128.607 15.2672 123.256Z" fill="#D1A170" style="fill:#D1A170;fill:color(display-p3 0.8196 0.6314 0.4392);fill-opacity:1;"/>
<path d="M67.1523 40.8027L64.4 23.4609C64.3038 22.8553 64.9705 22.4221 65.4848 22.7559C65.7193 22.9081 66.0214 22.9081 66.2559 22.7559L66.9454 22.3083C67.3376 22.0538 67.8427 22.0538 68.2349 22.3083L68.6652 22.5876C69.0573 22.8421 69.5625 22.8421 69.9546 22.5875L70.385 22.3082C70.7771 22.0537 71.2823 22.0537 71.6744 22.3082L72.1047 22.5875C72.4968 22.842 73.002 22.842 73.3941 22.5874L73.8245 22.3081C74.2166 22.0536 74.7218 22.0536 75.1139 22.3081L75.671 22.6696C75.986 22.8741 76.3919 22.8741 76.7069 22.6696C77.2776 22.2992 78.0413 22.6302 78.1612 23.2999L81.2171 40.3685C81.3077 40.875 80.7516 41.2468 80.3163 40.9724C79.9304 40.729 79.4378 40.7283 79.0518 40.9717L78.5451 41.2912C78.1592 41.5346 77.6677 41.5346 77.2818 41.2913L76.7751 40.9717C76.3891 40.7284 75.8977 40.7284 75.5117 40.9718L75.005 41.2913C74.619 41.5347 74.1276 41.5348 73.7416 41.2914L73.2349 40.9718C72.849 40.7285 72.3575 40.7285 71.9716 40.9719L71.4649 41.2915C71.0789 41.5348 70.5875 41.5349 70.2015 41.2915L69.6948 40.972C69.3089 40.7286 68.8174 40.7286 68.4315 40.972L68.0529 41.2107C67.6933 41.4375 67.2189 41.2226 67.1523 40.8027Z" fill="#A07549" style="fill:#A07549;fill:color(display-p3 0.6292 0.4592 0.2857);fill-opacity:1;"/>
<path d="M0.187691 125.854L19.3805 5.96181C19.5637 4.81743 21.2046 4.80063 21.4112 5.94101L42.7195 123.562C43.5119 128.565 39.6457 133.091 34.5805 133.091H5.78974C2.00513 133.091 -0.760798 129.518 0.187691 125.854Z" fill="#A97744" style="fill:#A97744;fill:color(display-p3 0.6625 0.4658 0.2650);fill-opacity:1;"/>
<path d="M26.3029 28.4061L19.3946 7.58351C18.7331 5.5898 20.1072 3.4929 22.0752 3.49288L98.2412 3.49219C99.354 3.49218 100.365 4.18977 100.829 5.27787L107.702 26.1012C108.567 28.1292 107.189 30.4387 105.115 30.4387H28.9836C27.7805 30.4387 26.7073 29.625 26.3029 28.4061Z" fill="#AC7E50" style="fill:#AC7E50;fill:color(display-p3 0.6750 0.4955 0.3122);fill-opacity:1;"/>
<path d="M26.5102 27.0371L19.3995 7.35869C18.7186 5.47453 20.133 3.49286 22.1586 3.49285L100.555 3.49219C101.701 3.49218 102.741 4.15143 103.218 5.17975L110.293 24.8588C111.183 26.7753 109.765 28.958 107.63 28.958H29.2693C28.031 28.958 26.9264 28.189 26.5102 27.0371Z" fill="#E2BC95" style="fill:#E2BC95;fill:color(display-p3 0.8875 0.7375 0.5843);fill-opacity:1;"/>
<path d="M68.1913 40.8027L65.439 23.4609C65.3429 22.8553 66.0096 22.4221 66.5239 22.7559C66.7584 22.9081 67.0605 22.9081 67.295 22.7559L67.9845 22.3083C68.3766 22.0538 68.8818 22.0538 69.2739 22.3083L69.7042 22.5876C70.0964 22.8421 70.6016 22.8421 70.9937 22.5875L71.424 22.3082C71.8161 22.0537 72.3213 22.0537 72.7135 22.3082L73.1438 22.5875C73.5359 22.842 74.0411 22.842 74.4332 22.5874L74.8635 22.3081C75.2557 22.0536 75.7608 22.0536 76.153 22.3081L76.7101 22.6696C77.0251 22.8741 77.4309 22.8741 77.7459 22.6696C78.3166 22.2992 79.0804 22.6302 79.2003 23.2999L82.2561 40.3685C82.3468 40.875 81.7906 41.2468 81.3554 40.9724C80.9694 40.729 80.4768 40.7283 80.0909 40.9717L79.5842 41.2912C79.1982 41.5346 78.7068 41.5346 78.3208 41.2913L77.8141 40.9717C77.4282 40.7284 76.9367 40.7284 76.5508 40.9718L76.044 41.2913C75.6581 41.5347 75.1667 41.5348 74.7807 41.2914L74.274 40.9718C73.8881 40.7285 73.3966 40.7285 73.0107 40.9719L72.5039 41.2915C72.118 41.5348 71.6265 41.5349 71.2406 41.2915L70.7339 40.972C70.3479 40.7286 69.8565 40.7286 69.4705 40.972L69.092 41.2107C68.7323 41.4375 68.258 41.2226 68.1913 40.8027Z" fill="white" style="fill:white;fill:white;fill-opacity:1;"/>
<path d="M77.1027 30.8942C77.1276 30.6172 77.0527 30.4124 76.8992 30.3155C76.6678 30.1701 76.3343 30.1099 75.56 30.1787C74.9867 30.2297 74.371 30.2851 74.1081 30.3081C74.0834 30.3054 73.9924 30.2849 73.9797 30.1802L73.8277 28.51C73.8184 28.4046 73.8959 28.3111 74.0016 28.3013C74.1073 28.2919 74.2004 28.37 74.2098 28.4753C74.2098 28.4753 74.2931 29.3816 74.3221 29.704C74.3249 29.7353 74.3498 29.8061 74.4222 29.8189C74.8961 29.9009 77.2274 29.603 77.1537 29.182C76.7988 27.4426 75.1884 26.2127 73.3806 26.3735C72.811 26.4241 72.284 26.6074 71.828 26.8896C70.7379 27.5773 70.0318 28.8329 70.1745 30.1979C70.2758 31.165 71.0686 32.8303 71.4831 33.0507C71.6741 33.1529 71.9079 33.0879 72.971 32.9934C73.4531 32.9505 73.9023 32.9122 74.1229 32.8936C74.1465 32.8958 74.2688 32.9125 74.2786 33.0228L74.3945 34.2926C74.4042 34.398 74.3263 34.4912 74.2206 34.5006C74.115 34.5103 74.0215 34.4327 74.0122 34.3273C74.0122 34.3273 73.9763 33.8167 73.9594 33.6271C73.9555 33.5829 73.9518 33.5069 73.8181 33.4611C73.3782 33.311 72.0131 33.5466 71.9541 33.7612C71.9319 33.8435 72.1129 34.1384 72.3847 34.5128C73.2839 35.6841 74.1439 36.5834 74.2829 36.7271C74.2916 36.7329 74.2992 36.7386 74.3064 36.7429C74.3982 36.6083 76.8841 33.3584 77.1027 30.8942Z" fill="#FF7152" style="fill:#FF7152;fill:color(display-p3 1.0000 0.4440 0.3208);fill-opacity:1;"/>
</svg>
