<svg width="737" height="422" viewBox="0 0 737 422" fill="none" xmlns="http://www.w3.org/2000/svg">
<g filter="url(#filter0_d_58403_18520)">
<path d="M533.34 162.661C534.71 162.625 536.025 162.607 537.287 162.607C561.329 162.607 574.648 170.514 577.243 186.33C577.748 189.637 578 192.728 578 195.604C578 207.286 573.584 215.463 564.753 220.136C555.273 225.132 546.857 227.63 539.504 227.63C538.242 227.63 537.035 227.558 535.881 227.414C537.143 240.965 537.773 248.298 537.773 249.412C536.224 257.392 532.222 261.382 525.77 261.382H524.527C516.633 261.382 512.001 253.834 510.631 238.737C509.406 227.414 508.793 218.824 508.793 212.965C508.793 206.818 508.991 199.899 509.388 192.207L506.252 192.854H499.926C495.528 192.854 492.374 189.277 490.464 182.124V180.237C490.464 171.539 500.557 166.093 520.742 163.901C522.941 163.469 527.14 163.056 533.34 162.661ZM534.638 203.422C542.748 200.726 546.803 198.138 546.803 195.658V195.496C546.623 192.944 542.766 191.308 535.232 190.589L534.638 203.422Z" fill="white" style="fill:white;fill:white;fill-opacity:1;"/>
</g>
<g filter="url(#filter1_d_58403_18520)">
<path d="M445.261 158.238C465.807 158.238 479.053 165.786 485.001 180.883C485.83 183.291 486.244 186.005 486.244 189.024C486.244 196.932 479.612 204.983 466.347 213.179C483.938 218.93 492.733 224.879 492.733 231.025C492.733 231.528 492.679 232.032 492.57 232.535C490.984 239.256 485.992 243.246 477.594 244.504C463.067 242.384 451.983 236.004 444.342 225.364C444.342 230.145 444.504 233.757 444.828 236.201C445.153 238.645 445.315 240.982 445.315 243.21C445.063 249.573 441.278 252.897 433.961 253.185C433.528 253.221 433.096 253.239 432.663 253.239C426.499 253.239 422.084 250.291 419.416 244.397C417.722 233.649 416.659 223.153 416.226 212.909C416.659 202.306 417.398 194.11 418.443 188.323L416.226 188.431C412.442 188.431 408.963 187.856 405.791 186.706C402.655 185.52 401.087 181.889 401.087 175.815C401.087 165.75 411.595 159.891 432.609 158.238H445.261ZM445.261 197.435C452.11 195.171 455.534 192.978 455.534 190.857V190.75C455.39 188.593 452.128 187.209 445.748 186.598L445.261 197.435Z" fill="white" style="fill:white;fill:white;fill-opacity:1;"/>
</g>
<g filter="url(#filter2_d_58403_18520)">
<path d="M326.661 162.491H330.392C336.015 162.491 339.602 166.265 341.152 173.813V175.701C337.367 187.706 335.474 196.081 335.474 200.826C335.042 202.263 334.826 204.995 334.826 209.021C334.826 219.085 337.133 224.118 341.746 224.118C348.271 224.118 354.38 219.912 360.075 211.501C365.518 203.989 369.934 189.952 373.322 169.392C376.025 165.187 380.008 163.084 385.271 163.084C393.273 163.084 397.274 169.806 397.274 183.249C397.274 187.239 398.536 206.307 401.059 240.454C398.608 246.745 394.823 249.89 389.705 249.89H387.812C382.586 249.89 378.801 246.529 376.458 239.807C376.458 236.033 375.827 234.146 374.566 234.146C362.959 244.211 352.452 249.243 343.044 249.243H341.152C327.454 249.243 317.776 241.497 312.117 226.005C310.856 221.907 310.225 216.444 310.225 209.614V205.84C312.027 176.941 317.506 162.491 326.661 162.491Z" fill="white" style="fill:white;fill:white;fill-opacity:1;"/>
</g>
<g filter="url(#filter3_d_58403_18520)">
<path d="M265.232 160.604H267.719C273.883 160.604 277.667 164.792 279.073 173.167C276.55 203.144 275.288 220.326 275.288 224.711L277.181 226.005C288.175 224.315 294.699 223.471 296.753 223.471C305.152 225.016 309.351 229.204 309.351 236.033C309.351 243.905 304.305 248.111 294.212 248.65C283.471 250.303 276.748 251.13 274.045 251.13C263.376 251.13 256.022 247.158 251.985 239.214C251.12 236.303 250.688 233.787 250.688 231.666V223.471C252.454 184.076 254.562 164.378 257.014 164.378C259.789 161.862 262.528 160.604 265.232 160.604Z" fill="white" style="fill:white;fill:white;fill-opacity:1;"/>
</g>
<g filter="url(#filter4_d_58403_18520)">
<path d="M206.093 156.83C223.287 156.83 235.074 162.06 241.454 172.52C242.211 174.245 242.589 175.988 242.589 177.749C242.589 178.936 242.409 180.14 242.048 181.362C241.003 186.61 237.849 189.755 232.587 190.797C226.567 190.797 222.638 189.647 220.8 187.347C218.997 185.01 217.105 183.537 215.123 182.925C213.176 182.278 210.599 181.955 207.391 181.955H205.498C194.036 183.069 187.728 185.801 186.575 190.15C190.035 191.301 201.389 193.188 220.637 195.812C239.561 199.873 249.023 208.051 249.023 220.344C249.023 236.375 234.929 246.853 206.742 251.777C203.065 252.208 199.911 252.424 197.28 252.424C180.05 252.424 171.436 247.392 171.436 237.327C172.95 229.348 176.734 225.358 182.79 225.358H185.277C190.756 226.616 194.342 227.245 196.037 227.245H200.416C213.032 225.735 219.34 223.848 219.34 221.584C216.925 220.038 204.309 217.935 181.492 215.275C175.761 214.485 170.318 211.645 165.164 206.757C161.055 202.911 159 198.633 159 193.924C159 192.702 159.144 191.444 159.433 190.15C162.857 170.201 178.41 159.094 206.093 156.83Z" fill="white" style="fill:white;fill:white;fill-opacity:1;"/>
</g>
<path d="M418.207 262.174H420.367C436.412 262.174 445.998 265.556 449.125 272.321V279.105C449.125 285.328 444.579 289.155 435.486 290.585L418.886 288.556C412.756 288.556 253.312 292.599 224.925 296.232H223.443C215.791 296.232 211.471 291.497 210.484 282.027C210.484 274.451 216.491 270.16 228.504 269.155C248.046 265.985 406.07 262.174 418.207 262.174Z" fill="white" style="fill:white;fill:white;fill-opacity:1;"/>
<path d="M501.417 273.141C499.555 266.601 492.757 264.678 480.921 263.848C477.733 263.906 472.449 263.679 470.23 264.439C461.302 264.766 456.589 268.501 456.091 275.644C456.196 284.625 459.071 289.313 464.716 289.708C469.506 289.21 483.658 288.967 490.155 289.656C496.956 288.778 500.561 285.405 500.971 279.537L501.417 273.141Z" fill="white" style="fill:white;fill:white;fill-opacity:1;"/>
<defs>
<filter id="filter0_d_58403_18520" x="332.052" y="5.77872" width="404.36" height="415.599" filterUnits="userSpaceOnUse" color-interpolation-filters="sRGB">
<feFlood flood-opacity="0" result="BackgroundImageFix"/>
<feColorMatrix in="SourceAlpha" type="matrix" values="0 0 0 0 0 0 0 0 0 0 0 0 0 0 0 0 0 0 127 0" result="hardAlpha"/>
<feOffset dy="1.58412"/>
<feGaussianBlur stdDeviation="79.206"/>
<feComposite in2="hardAlpha" operator="out"/>
<feColorMatrix type="matrix" values="0 0 0 0 0.363924 0 0 0 0 0.382419 0 0 0 0 0.41941 0 0 0 0.1 0"/>
<feBlend mode="normal" in2="BackgroundImageFix" result="effect1_dropShadow_58403_18520"/>
<feBlend mode="normal" in="SourceGraphic" in2="effect1_dropShadow_58403_18520" result="shape"/>
</filter>
<filter id="filter1_d_58403_18520" x="242.675" y="1.40982" width="408.469" height="411.825" filterUnits="userSpaceOnUse" color-interpolation-filters="sRGB">
<feFlood flood-opacity="0" result="BackgroundImageFix"/>
<feColorMatrix in="SourceAlpha" type="matrix" values="0 0 0 0 0 0 0 0 0 0 0 0 0 0 0 0 0 0 127 0" result="hardAlpha"/>
<feOffset dy="1.58412"/>
<feGaussianBlur stdDeviation="79.206"/>
<feComposite in2="hardAlpha" operator="out"/>
<feColorMatrix type="matrix" values="0 0 0 0 0.363924 0 0 0 0 0.382419 0 0 0 0 0.41941 0 0 0 0.1 0"/>
<feBlend mode="normal" in2="BackgroundImageFix" result="effect1_dropShadow_58403_18520"/>
<feBlend mode="normal" in="SourceGraphic" in2="effect1_dropShadow_58403_18520" result="shape"/>
</filter>
<filter id="filter2_d_58403_18520" x="151.813" y="5.66299" width="407.658" height="404.223" filterUnits="userSpaceOnUse" color-interpolation-filters="sRGB">
<feFlood flood-opacity="0" result="BackgroundImageFix"/>
<feColorMatrix in="SourceAlpha" type="matrix" values="0 0 0 0 0 0 0 0 0 0 0 0 0 0 0 0 0 0 127 0" result="hardAlpha"/>
<feOffset dy="1.58412"/>
<feGaussianBlur stdDeviation="79.206"/>
<feComposite in2="hardAlpha" operator="out"/>
<feColorMatrix type="matrix" values="0 0 0 0 0.363924 0 0 0 0 0.382419 0 0 0 0 0.41941 0 0 0 0.1 0"/>
<feBlend mode="normal" in2="BackgroundImageFix" result="effect1_dropShadow_58403_18520"/>
<feBlend mode="normal" in="SourceGraphic" in2="effect1_dropShadow_58403_18520" result="shape"/>
</filter>
<filter id="filter3_d_58403_18520" x="92.2755" y="3.77603" width="375.488" height="407.35" filterUnits="userSpaceOnUse" color-interpolation-filters="sRGB">
<feFlood flood-opacity="0" result="BackgroundImageFix"/>
<feColorMatrix in="SourceAlpha" type="matrix" values="0 0 0 0 0 0 0 0 0 0 0 0 0 0 0 0 0 0 127 0" result="hardAlpha"/>
<feOffset dy="1.58412"/>
<feGaussianBlur stdDeviation="79.206"/>
<feComposite in2="hardAlpha" operator="out"/>
<feColorMatrix type="matrix" values="0 0 0 0 0.363924 0 0 0 0 0.382419 0 0 0 0 0.41941 0 0 0 0.1 0"/>
<feBlend mode="normal" in2="BackgroundImageFix" result="effect1_dropShadow_58403_18520"/>
<feBlend mode="normal" in="SourceGraphic" in2="effect1_dropShadow_58403_18520" result="shape"/>
</filter>
<filter id="filter4_d_58403_18520" x="0.587906" y="0.00186086" width="406.847" height="412.418" filterUnits="userSpaceOnUse" color-interpolation-filters="sRGB">
<feFlood flood-opacity="0" result="BackgroundImageFix"/>
<feColorMatrix in="SourceAlpha" type="matrix" values="0 0 0 0 0 0 0 0 0 0 0 0 0 0 0 0 0 0 127 0" result="hardAlpha"/>
<feOffset dy="1.58412"/>
<feGaussianBlur stdDeviation="79.206"/>
<feComposite in2="hardAlpha" operator="out"/>
<feColorMatrix type="matrix" values="0 0 0 0 0.363924 0 0 0 0 0.382419 0 0 0 0 0.41941 0 0 0 0.1 0"/>
<feBlend mode="normal" in2="BackgroundImageFix" result="effect1_dropShadow_58403_18520"/>
<feBlend mode="normal" in="SourceGraphic" in2="effect1_dropShadow_58403_18520" result="shape"/>
</filter>
</defs>
</svg>
