<svg width="395" height="181" viewBox="0 0 395 181" fill="none" xmlns="http://www.w3.org/2000/svg">
<path d="M24.8 64.8C24.8 68.9333 26.8 72.2 30.8 74.6C34.9333 77 41.2 79 49.6 80.6C61.0667 83 69.4667 86.5333 74.8 91.2C80.2667 95.8667 83 102.333 83 110.6C83 119.8 79.5333 127.467 72.6 133.6C65.8 139.733 56.4667 142.8 44.6 142.8C33.5333 142.8 24.2667 140.067 16.8 134.6C9.33333 129 4 121.933 0.800001 113.4L17.4 103C22.8667 117.933 32 125.4 44.8 125.4C50.1333 125.4 54.6 124.133 58.2 121.6C61.8 118.933 63.6 115.467 63.6 111.2C63.6 107.067 61.8 103.933 58.2 101.8C54.6 99.5333 48.6 97.5333 40.2 95.8C17.6667 91.4 6.4 81.4 6.4 65.8C6.4 57.2667 9.86667 50.5333 16.8 45.6C23.7333 40.5333 32.0667 38 41.8 38C52.0667 38 60.3333 40.0667 66.6 44.2C73 48.2 78 54.3333 81.6 62.6L66.6 71.4C62.0667 59.5333 53.9333 53.6 42.2 53.6C37.2667 53.6 33.1333 54.6667 29.8 56.8C26.4667 58.8 24.8 61.4667 24.8 64.8ZM93.2188 140V-9.53674e-06H113.619V140H93.2188ZM127.508 104.6V40.8H147.908V100.4C147.908 108.133 149.774 114 153.508 118C157.374 122 162.841 124 169.908 124C177.241 124 183.374 121.2 188.308 115.6C193.374 110 195.908 102.933 195.908 94.4V40.8H216.308V140H195.908V124C189.241 136.533 178.508 142.8 163.708 142.8C153.308 142.8 144.641 139.533 137.708 133C130.908 126.467 127.508 117 127.508 104.6ZM287.728 39L284.328 58.4C281.795 57.6 279.195 57.2 276.528 57.2C269.328 57.2 263.395 60.1333 258.728 66C254.061 71.7333 251.728 79 251.728 87.8V140H231.328V40.8H251.728V57.6C257.728 44.5333 267.261 38 280.328 38C282.328 38 284.795 38.3333 287.728 39ZM292.766 180.8V40.8H313.166V56C316.366 50.9333 321.166 46.6667 327.566 43.2C333.966 39.7333 340.899 38 348.366 38C361.299 38 372.166 42.8 380.966 52.4C389.766 61.8667 394.166 74.5333 394.166 90.4C394.166 106.133 389.632 118.8 380.566 128.4C371.499 138 360.166 142.8 346.566 142.8C339.366 142.8 332.766 141.333 326.766 138.4C320.899 135.467 316.366 131.467 313.166 126.4V180.8H292.766ZM364.366 66.2C358.499 59.9333 351.232 56.8 342.566 56.8C333.899 56.8 326.566 59.9333 320.566 66.2C314.699 72.4667 311.766 80.5333 311.766 90.4C311.766 100.267 314.699 108.333 320.566 114.6C326.566 120.867 333.899 124 342.566 124C351.232 124 358.499 120.867 364.366 114.6C370.366 108.333 373.366 100.267 373.366 90.4C373.366 80.5333 370.366 72.4667 364.366 66.2Z" fill="white" style="fill:white;fill:white;fill-opacity:1;"/>
<path d="M30.8 74.6L30.2855 75.4575L30.2917 75.4612L30.2979 75.4648L30.8 74.6ZM49.6 80.6L49.8049 79.6212L49.796 79.6194L49.7871 79.6177L49.6 80.6ZM74.8 91.2L74.1415 91.9526L74.1507 91.9606L74.8 91.2ZM72.6 133.6L71.9374 132.851L71.9302 132.857L72.6 133.6ZM16.8 134.6L16.2 135.4L16.2093 135.407L16.8 134.6ZM0.800001 113.4L0.269084 112.553L-0.42315 112.986L-0.136328 113.751L0.800001 113.4ZM17.4 103L18.3391 102.656L17.9148 101.497L16.8691 102.153L17.4 103ZM58.2 121.6L58.7755 122.418L58.7855 122.411L58.7952 122.404L58.2 121.6ZM58.2 101.8L57.6672 102.646L57.6786 102.653L57.6902 102.66L58.2 101.8ZM40.2 95.8L40.4021 94.8206L40.3916 94.8185L40.2 95.8ZM16.8 45.6L17.3798 46.4148L17.39 46.4074L16.8 45.6ZM66.6 44.2L66.0494 45.0348L66.0596 45.0415L66.07 45.048L66.6 44.2ZM81.6 62.6L82.106 63.4625L82.8709 63.0138L82.5168 62.2007L81.6 62.6ZM66.6 71.4L65.6659 71.7569L66.0873 72.8602L67.106 72.2625L66.6 71.4ZM29.8 56.8L30.3145 57.6575L30.3269 57.6501L30.3391 57.6423L29.8 56.8ZM23.8 64.8C23.8 69.3354 26.0306 72.9045 30.2855 75.4575L31.3145 73.7425C27.5694 71.4955 25.8 68.5313 25.8 64.8H23.8ZM30.2979 75.4648C34.5772 77.9496 40.9751 79.9751 49.4129 81.5823L49.7871 79.6177C41.4249 78.0249 35.2894 76.0504 31.3021 73.7352L30.2979 75.4648ZM49.3951 81.5788C60.7912 83.964 68.996 87.4503 74.1415 91.9526L75.4585 90.4474C69.9373 85.6164 61.3422 82.036 49.8049 79.6212L49.3951 81.5788ZM74.1507 91.9606C79.3602 96.4076 82 102.577 82 110.6H84C84 102.09 81.1732 95.3257 75.4493 90.4394L74.1507 91.9606ZM82 110.6C82 119.512 78.6577 126.906 71.9374 132.851L73.2626 134.349C80.409 128.027 84 120.088 84 110.6H82ZM71.9302 132.857C65.3631 138.781 56.2945 141.8 44.6 141.8V143.8C56.6389 143.8 66.237 140.686 73.2698 134.343L71.9302 132.857ZM44.6 141.8C33.703 141.8 24.6545 139.111 17.3907 133.793L16.2093 135.407C23.8789 141.022 33.3636 143.8 44.6 143.8V141.8ZM17.4 133.8C10.0821 128.312 4.86765 121.399 1.73633 113.049L-0.136328 113.751C3.13235 122.468 8.58459 129.688 16.2 135.4L17.4 133.8ZM1.33092 114.247L17.9309 103.847L16.8691 102.153L0.269084 112.553L1.33092 114.247ZM16.4609 103.344C19.2352 110.922 22.9714 116.695 27.7171 120.574C32.478 124.466 38.1903 126.4 44.8 126.4V124.4C38.6097 124.4 33.3554 122.6 28.9829 119.026C24.5952 115.439 21.0315 110.011 18.3391 102.656L16.4609 103.344ZM44.8 126.4C50.295 126.4 54.974 125.093 58.7755 122.418L57.6245 120.782C54.226 123.174 49.9717 124.4 44.8 124.4V126.4ZM58.7952 122.404C62.6349 119.559 64.6 115.802 64.6 111.2H62.6C62.6 115.132 60.9651 118.307 57.6048 120.796L58.7952 122.404ZM64.6 111.2C64.6 106.708 62.609 103.25 58.7098 100.94L57.6902 102.66C60.991 104.616 62.6 107.425 62.6 111.2H64.6ZM58.7328 100.954C54.9733 98.5867 48.825 96.5587 40.4021 94.8206L39.9979 96.7794C48.375 98.508 54.2267 100.48 57.6672 102.646L58.7328 100.954ZM40.3916 94.8185C29.2157 92.6362 20.961 89.0869 15.5138 84.2521C10.1028 79.4494 7.4 73.3257 7.4 65.8H5.4C5.4 73.8743 8.33053 80.5506 14.1862 85.7479C20.0056 90.9131 28.651 94.5638 40.0084 96.7815L40.3916 94.8185ZM7.4 65.8C7.4 57.5892 10.711 51.1599 17.3798 46.4148L16.2202 44.7852C9.02236 49.9068 5.4 56.9442 5.4 65.8H7.4ZM17.39 46.4074C24.1297 41.4822 32.2493 39 41.8 39V37C31.8841 37 23.337 39.5844 16.21 44.7926L17.39 46.4074ZM41.8 39C51.9407 39 59.996 41.0421 66.0494 45.0348L67.1506 43.3652C60.6706 39.0912 52.1926 37 41.8 37V39ZM66.07 45.048C72.2676 48.9215 77.1478 54.8811 80.6832 62.9993L82.5168 62.2007C78.8522 53.7856 73.7324 47.4785 67.13 43.352L66.07 45.048ZM81.094 61.7375L66.094 70.5375L67.106 72.2625L82.106 63.4625L81.094 61.7375ZM67.5342 71.0431C65.2165 64.9764 61.9484 60.3491 57.6894 57.2421C53.4244 54.1308 48.2423 52.6 42.2 52.6V54.6C47.8911 54.6 52.6423 56.0359 56.5107 58.8579C60.385 61.6842 63.4502 65.957 65.6659 71.7569L67.5342 71.0431ZM42.2 52.6C37.1226 52.6 32.7907 53.6987 29.2609 55.9577L30.3391 57.6423C33.476 55.6346 37.4107 54.6 42.2 54.6V52.6ZM29.2855 55.9425C25.7102 58.0877 23.8 61.0515 23.8 64.8H25.8C25.8 61.8819 27.2232 59.5123 30.3145 57.6575L29.2855 55.9425ZM93.2188 140H92.2188V141H93.2188V140ZM93.2188 -9.53674e-06V-1.00001H92.2188V-9.53674e-06H93.2188ZM113.619 -9.53674e-06H114.619V-1.00001H113.619V-9.53674e-06ZM113.619 140V141H114.619V140H113.619ZM94.2188 140V-9.53674e-06H92.2188V140H94.2188ZM93.2188 0.99999H113.619V-1.00001H93.2188V0.99999ZM112.619 -9.53674e-06V140H114.619V-9.53674e-06H112.619ZM113.619 139H93.2188V141H113.619V139ZM127.508 40.8V39.8H126.508V40.8H127.508ZM147.908 40.8H148.908V39.8H147.908V40.8ZM153.508 118L152.777 118.682L152.783 118.689L152.789 118.695L153.508 118ZM188.308 115.6L187.566 114.929L187.557 114.939L188.308 115.6ZM195.908 40.8V39.8H194.908V40.8H195.908ZM216.308 40.8H217.308V39.8H216.308V40.8ZM216.308 140V141H217.308V140H216.308ZM195.908 140H194.908V141H195.908V140ZM195.908 124H196.908L195.025 123.53L195.908 124ZM137.708 133L137.015 133.721L137.022 133.728L137.708 133ZM128.508 104.6V40.8H126.508V104.6H128.508ZM127.508 41.8H147.908V39.8H127.508V41.8ZM146.908 40.8V100.4H148.908V40.8H146.908ZM146.908 100.4C146.908 108.282 148.81 114.433 152.777 118.682L154.239 117.318C150.739 113.567 148.908 107.985 148.908 100.4H146.908ZM152.789 118.695C156.892 122.939 162.647 125 169.908 125V123C163.035 123 157.857 121.061 154.227 117.305L152.789 118.695ZM169.908 125C177.534 125 183.939 122.072 189.058 116.261L187.557 114.939C182.81 120.328 176.948 123 169.908 123V125ZM189.049 116.271C194.304 110.463 196.908 103.147 196.908 94.4H194.908C194.908 102.72 192.445 109.537 187.566 114.929L189.049 116.271ZM196.908 94.4V40.8H194.908V94.4H196.908ZM195.908 41.8H216.308V39.8H195.908V41.8ZM215.308 40.8V140H217.308V40.8H215.308ZM216.308 139H195.908V141H216.308V139ZM196.908 140V124H194.908V140H196.908ZM195.025 123.53C191.766 129.657 187.538 134.209 182.354 137.236C177.167 140.265 170.965 141.8 163.708 141.8V143.8C171.251 143.8 177.815 142.202 183.362 138.964C188.911 135.724 193.383 130.876 196.791 124.47L195.025 123.53ZM163.708 141.8C153.537 141.8 145.124 138.614 138.394 132.272L137.022 133.728C144.159 140.453 153.078 143.8 163.708 143.8V141.8ZM138.401 132.279C131.853 125.988 128.508 116.817 128.508 104.6H126.508C126.508 117.183 129.962 126.945 137.015 133.721L138.401 132.279ZM287.728 39L288.713 39.1726L288.877 38.2357L287.95 38.0249L287.728 39ZM284.328 58.4L284.027 59.3536L285.116 59.6975L285.313 58.5726L284.328 58.4ZM258.728 66L259.504 66.6313L259.511 66.6225L258.728 66ZM251.728 140V141H252.728V140H251.728ZM231.328 140H230.328V141H231.328V140ZM231.328 40.8V39.8H230.328V40.8H231.328ZM251.728 40.8H252.728V39.8H251.728V40.8ZM251.728 57.6H250.728L252.637 58.0173L251.728 57.6ZM286.743 38.8274L283.343 58.2274L285.313 58.5726L288.713 39.1726L286.743 38.8274ZM284.629 57.4464C281.998 56.6155 279.297 56.2 276.528 56.2V58.2C279.093 58.2 281.591 58.5845 284.027 59.3536L284.629 57.4464ZM276.528 56.2C269.009 56.2 262.793 59.2837 257.946 65.3775L259.511 66.6225C263.997 60.983 269.647 58.2 276.528 58.2V56.2ZM257.953 65.3687C253.114 71.3128 250.728 78.8156 250.728 87.8H252.728C252.728 79.1844 255.009 72.1538 259.504 66.6313L257.953 65.3687ZM250.728 87.8V140H252.728V87.8H250.728ZM251.728 139H231.328V141H251.728V139ZM232.328 140V40.8H230.328V140H232.328ZM231.328 41.8H251.728V39.8H231.328V41.8ZM250.728 40.8V57.6H252.728V40.8H250.728ZM252.637 58.0173C255.58 51.6085 259.358 46.867 263.943 43.7249C268.522 40.5868 273.969 39 280.328 39V37C273.62 37 267.767 38.6798 262.813 42.0751C257.864 45.4663 253.877 50.5248 250.819 57.1827L252.637 58.0173ZM280.328 39C282.226 39 284.613 39.3176 287.507 39.9751L287.95 38.0249C284.976 37.3491 282.43 37 280.328 37V39ZM292.766 180.8H291.766V181.8H292.766V180.8ZM292.766 40.8V39.8H291.766V40.8H292.766ZM313.166 40.8H314.166V39.8H313.166V40.8ZM313.166 56H312.166V59.456L314.011 56.534L313.166 56ZM327.566 43.2L328.042 44.0793L328.042 44.0793L327.566 43.2ZM380.966 52.4L380.228 53.0757L380.233 53.0808L380.966 52.4ZM380.566 128.4L379.839 127.713L379.839 127.713L380.566 128.4ZM326.766 138.4L326.318 139.294L326.326 139.298L326.766 138.4ZM313.166 126.4L314.011 125.866L312.166 122.944V126.4H313.166ZM313.166 180.8V181.8H314.166V180.8H313.166ZM364.366 66.2L363.636 66.8835L363.643 66.8916L364.366 66.2ZM320.566 66.2L319.843 65.5084L319.836 65.5166L320.566 66.2ZM320.566 114.6L319.836 115.283L319.843 115.292L320.566 114.6ZM364.366 114.6L363.643 113.908L363.636 113.917L364.366 114.6ZM293.766 180.8V40.8H291.766V180.8H293.766ZM292.766 41.8H313.166V39.8H292.766V41.8ZM312.166 40.8V56H314.166V40.8H312.166ZM314.011 56.534C317.102 51.6402 321.76 47.4818 328.042 44.0793L327.089 42.3207C320.571 45.8515 315.629 50.2265 312.32 55.466L314.011 56.534ZM328.042 44.0793C334.292 40.6939 341.061 39 348.366 39V37C340.737 37 333.639 38.7727 327.089 42.3207L328.042 44.0793ZM348.366 39C361.016 39 371.616 43.6807 380.228 53.0757L381.703 51.7243C372.715 41.9193 361.581 37 348.366 37V39ZM380.233 53.0808C388.824 62.3226 393.166 74.7255 393.166 90.4H395.166C395.166 74.3411 390.707 61.4108 381.698 51.7191L380.233 53.0808ZM393.166 90.4C393.166 105.93 388.697 118.334 379.839 127.713L381.293 129.087C390.567 119.266 395.166 106.337 395.166 90.4H393.166ZM379.839 127.713C370.967 137.107 359.9 141.8 346.566 141.8V143.8C360.431 143.8 372.031 138.893 381.293 129.087L379.839 127.713ZM346.566 141.8C339.506 141.8 333.058 140.363 327.205 137.502L326.326 139.298C332.474 142.304 339.226 143.8 346.566 143.8V141.8ZM327.213 137.506C321.493 134.646 317.105 130.764 314.011 125.866L312.32 126.934C315.627 132.169 320.305 136.287 326.318 139.294L327.213 137.506ZM312.166 126.4V180.8H314.166V126.4H312.166ZM313.166 179.8H292.766V181.8H313.166V179.8ZM365.096 65.5166C359.038 59.0457 351.506 55.8 342.566 55.8V57.8C350.959 57.8 357.96 60.8209 363.636 66.8834L365.096 65.5166ZM342.566 55.8C333.626 55.8 326.032 59.045 319.843 65.5084L321.288 66.8916C327.1 60.8217 334.172 57.8 342.566 57.8V55.8ZM319.836 65.5166C313.77 71.9963 310.766 80.3202 310.766 90.4H312.766C312.766 80.7464 315.628 72.9371 321.296 66.8834L319.836 65.5166ZM310.766 90.4C310.766 100.48 313.77 108.804 319.836 115.283L321.296 113.917C315.628 107.863 312.766 100.054 312.766 90.4H310.766ZM319.843 115.292C326.032 121.755 333.626 125 342.566 125V123C334.172 123 327.1 119.978 321.288 113.908L319.843 115.292ZM342.566 125C351.506 125 359.038 121.754 365.096 115.283L363.636 113.917C357.96 119.979 350.959 123 342.566 123V125ZM365.088 115.292C371.291 108.813 374.366 100.486 374.366 90.4H372.366C372.366 100.047 369.44 107.854 363.643 113.908L365.088 115.292ZM374.366 90.4C374.366 80.3139 371.291 71.9871 365.088 65.5084L363.643 66.8916C369.44 72.9462 372.366 80.7528 372.366 90.4H374.366Z" fill="white" style="fill:white;fill:white;fill-opacity:1;"/>
</svg>
