<svg width="174" height="84" viewBox="0 0 174 84" fill="none" xmlns="http://www.w3.org/2000/svg">
<path d="M129.261 75.936V17.136H139.845V23.1C141.301 20.972 143.317 19.264 145.893 17.976C148.469 16.632 151.269 15.96 154.293 15.96C159.725 15.96 164.261 17.948 167.901 21.924C171.597 25.9 173.445 31.248 173.445 37.968C173.445 44.52 171.513 49.84 167.649 53.928C163.785 57.96 159.025 59.976 153.369 59.976C147.713 59.976 143.205 57.876 139.845 53.676V75.936H129.261ZM159.333 29.4C157.093 27.048 154.293 25.872 150.933 25.872C147.573 25.872 144.773 27.048 142.533 29.4C140.293 31.696 139.173 34.552 139.173 37.968C139.173 41.384 140.293 44.268 142.533 46.62C144.773 48.916 147.573 50.064 150.933 50.064C154.293 50.064 157.093 48.916 159.333 46.62C161.573 44.268 162.693 41.384 162.693 37.968C162.693 34.552 161.573 31.696 159.333 29.4Z" fill="white" style="fill:white;fill:white;fill-opacity:1;"/>
<path d="M127.011 16.464L125.331 26.46C124.267 26.068 123.119 25.872 121.887 25.872C118.807 25.872 116.343 27.048 114.495 29.4C112.703 31.696 111.807 34.636 111.807 38.22V58.8H101.223V17.136H111.807V23.772C114.383 18.564 118.247 15.96 123.399 15.96C124.687 15.96 125.891 16.128 127.011 16.464Z" fill="white" style="fill:white;fill:white;fill-opacity:1;"/>
<path d="M55.958 43.0087V17.1367H66.542V40.5727C66.542 46.9007 69.37 50.0647 75.026 50.0647C77.938 50.0647 80.262 49.0007 81.998 46.8727C83.79 44.7447 84.686 42.0007 84.686 38.6407V17.1367H95.27V58.8007H84.686V52.2487C81.886 57.4007 77.462 59.9767 71.414 59.9767C66.878 59.9767 63.154 58.4927 60.242 55.5247C57.386 52.5567 55.958 48.3847 55.958 43.0087Z" fill="white" style="fill:white;fill:white;fill-opacity:1;"/>
<path d="M39.7314 58.8V0H50.3154V58.8H39.7314Z" fill="white" style="fill:white;fill:white;fill-opacity:1;"/>
<path d="M11.76 27.384C11.76 29.96 15.036 31.92 21.588 33.264C26.46 34.272 29.988 35.812 32.172 37.884C34.412 39.9 35.532 42.644 35.532 46.116C35.532 50.148 34.048 53.48 31.08 56.112C28.112 58.688 24.108 59.976 19.068 59.976C14.252 59.976 10.248 58.8 7.056 56.448C3.92 54.096 1.568 51.1 0 47.46L8.484 42.084C9.436 44.828 10.808 47.012 12.6 48.636C14.448 50.26 16.66 51.072 19.236 51.072C20.972 51.072 22.484 50.68 23.772 49.896C25.116 49.056 25.788 47.908 25.788 46.452C25.788 45.108 25.088 44.044 23.688 43.26C22.288 42.42 20.02 41.692 16.884 41.076C7.196 39.172 2.352 34.832 2.352 28.056C2.352 24.304 3.864 21.364 6.888 19.236C9.912 17.052 13.58 15.96 17.892 15.96C22.316 15.96 25.844 16.8 28.476 18.48C31.164 20.16 33.376 22.82 35.112 26.46L27.468 30.996C25.564 26.124 22.428 23.688 18.06 23.688C13.86 23.688 11.76 24.92 11.76 27.384Z" fill="white" style="fill:white;fill:white;fill-opacity:1;"/>
<path opacity="0.2" d="M1.932 78.896C1.084 78.04 0.66 77.008 0.66 75.8C0.66 74.592 1.084 73.564 1.932 72.716C2.788 71.86 3.82 71.432 5.028 71.432C6.228 71.432 7.256 71.86 8.112 72.716C8.968 73.564 9.396 74.592 9.396 75.8C9.396 77.008 8.968 78.04 8.112 78.896C7.256 79.744 6.228 80.168 5.028 80.168C3.82 80.168 2.788 79.744 1.932 78.896ZM2.556 73.328C1.884 74.008 1.548 74.832 1.548 75.8C1.548 76.768 1.884 77.596 2.556 78.284C3.236 78.964 4.06 79.304 5.028 79.304C5.996 79.304 6.816 78.964 7.488 78.284C8.168 77.596 8.508 76.768 8.508 75.8C8.508 74.832 8.168 74.008 7.488 73.328C6.816 72.64 5.996 72.296 5.028 72.296C4.06 72.296 3.236 72.64 2.556 73.328ZM6.444 76.436L7.176 76.916C6.728 77.804 6.02 78.248 5.052 78.248C4.364 78.248 3.788 78.02 3.324 77.564C2.868 77.1 2.64 76.512 2.64 75.8C2.64 75.096 2.876 74.512 3.348 74.048C3.82 73.584 4.388 73.352 5.052 73.352C5.556 73.352 5.988 73.464 6.348 73.688C6.708 73.912 6.972 74.22 7.14 74.612L6.384 75.116C6.096 74.524 5.652 74.228 5.052 74.228C4.644 74.228 4.3 74.372 4.02 74.66C3.748 74.94 3.612 75.32 3.612 75.8C3.612 76.288 3.748 76.672 4.02 76.952C4.292 77.232 4.636 77.372 5.052 77.372C5.388 77.372 5.66 77.296 5.868 77.144C6.076 76.992 6.268 76.756 6.444 76.436ZM14.3791 75.488C14.3791 75.736 14.4991 75.932 14.7391 76.076C14.9871 76.22 15.3631 76.34 15.8671 76.436C16.5551 76.58 17.0591 76.792 17.3791 77.072C17.7071 77.352 17.8711 77.74 17.8711 78.236C17.8711 78.788 17.6631 79.248 17.2471 79.616C16.8391 79.984 16.2791 80.168 15.5671 80.168C14.9031 80.168 14.3471 80.004 13.8991 79.676C13.4511 79.34 13.1311 78.916 12.9391 78.404L13.9351 77.78C14.2631 78.676 14.8111 79.124 15.5791 79.124C15.8991 79.124 16.1671 79.048 16.3831 78.896C16.5991 78.736 16.7071 78.528 16.7071 78.272C16.7071 78.024 16.5991 77.836 16.3831 77.708C16.1671 77.572 15.8071 77.452 15.3031 77.348C13.9511 77.084 13.2751 76.484 13.2751 75.548C13.2751 75.036 13.4831 74.632 13.8991 74.336C14.3151 74.032 14.8151 73.88 15.3991 73.88C16.0151 73.88 16.5111 74.004 16.8871 74.252C17.2711 74.492 17.5711 74.86 17.7871 75.356L16.8871 75.884C16.6151 75.172 16.1271 74.816 15.4231 74.816C15.1271 74.816 14.8791 74.88 14.6791 75.008C14.4791 75.128 14.3791 75.288 14.3791 75.488ZM22.579 74.048L23.779 78.416L24.859 74.048H26.083L24.415 80H23.167L21.967 75.584L20.767 80H19.519L17.851 74.048H19.075L20.155 78.416L21.355 74.048H22.579ZM26.5174 80V74.048H27.7414V80H26.5174ZM26.4334 73.1V71.72H27.8254V73.1H26.4334ZM28.9802 80.072L30.1682 80.408C30.1042 80.552 30.0722 80.696 30.0722 80.84C30.0722 81.064 30.2082 81.248 30.4802 81.392C30.7522 81.536 31.1122 81.608 31.5602 81.608C32.6802 81.608 33.2402 81.008 33.2402 79.808V78.872C33.0802 79.176 32.8402 79.424 32.5202 79.616C32.2082 79.808 31.8442 79.904 31.4282 79.904C30.6202 79.904 29.9402 79.624 29.3882 79.064C28.8362 78.504 28.5602 77.78 28.5602 76.892C28.5602 75.996 28.8362 75.272 29.3882 74.72C29.9402 74.16 30.6082 73.88 31.3922 73.88C31.7922 73.88 32.1562 73.972 32.4842 74.156C32.8122 74.332 33.0642 74.568 33.2402 74.864V74.048H34.4642V79.64C34.4642 80.592 34.2082 81.324 33.6962 81.836C33.1842 82.356 32.4722 82.616 31.5602 82.616C30.6962 82.616 30.0242 82.448 29.5442 82.112C29.0642 81.776 28.8242 81.32 28.8242 80.744C28.8242 80.48 28.8762 80.256 28.9802 80.072ZM32.8082 75.488C32.4802 75.144 32.0602 74.972 31.5482 74.972C31.0362 74.972 30.6122 75.144 30.2762 75.488C29.9482 75.832 29.7842 76.3 29.7842 76.892C29.7842 77.484 29.9482 77.952 30.2762 78.296C30.6122 78.64 31.0362 78.812 31.5482 78.812C32.0602 78.812 32.4802 78.64 32.8082 78.296C33.1442 77.952 33.3122 77.484 33.3122 76.892C33.3122 76.3 33.1442 75.832 32.8082 75.488ZM35.6135 80.072L36.8015 80.408C36.7375 80.552 36.7055 80.696 36.7055 80.84C36.7055 81.064 36.8415 81.248 37.1135 81.392C37.3855 81.536 37.7455 81.608 38.1935 81.608C39.3135 81.608 39.8735 81.008 39.8735 79.808V78.872C39.7135 79.176 39.4735 79.424 39.1535 79.616C38.8415 79.808 38.4775 79.904 38.0615 79.904C37.2535 79.904 36.5735 79.624 36.0215 79.064C35.4695 78.504 35.1935 77.78 35.1935 76.892C35.1935 75.996 35.4695 75.272 36.0215 74.72C36.5735 74.16 37.2415 73.88 38.0255 73.88C38.4255 73.88 38.7895 73.972 39.1175 74.156C39.4455 74.332 39.6975 74.568 39.8735 74.864V74.048H41.0975V79.64C41.0975 80.592 40.8415 81.324 40.3295 81.836C39.8175 82.356 39.1055 82.616 38.1935 82.616C37.3295 82.616 36.6575 82.448 36.1775 82.112C35.6975 81.776 35.4575 81.32 35.4575 80.744C35.4575 80.48 35.5095 80.256 35.6135 80.072ZM39.4415 75.488C39.1135 75.144 38.6935 74.972 38.1815 74.972C37.6695 74.972 37.2455 75.144 36.9095 75.488C36.5815 75.832 36.4175 76.3 36.4175 76.892C36.4175 77.484 36.5815 77.952 36.9095 78.296C37.2455 78.64 37.6695 78.812 38.1815 78.812C38.6935 78.812 39.1135 78.64 39.4415 78.296C39.7775 77.952 39.9455 77.484 39.9455 76.892C39.9455 76.3 39.7775 75.832 39.4415 75.488ZM42.1147 82.4L42.3067 81.284C42.4987 81.364 42.6787 81.404 42.8467 81.404C43.0147 81.404 43.1467 81.36 43.2427 81.272C43.3467 81.192 43.4547 81.024 43.5667 80.768L43.8427 80.036L41.4187 74.048H42.8227L44.5027 78.344L46.1707 74.048H47.5267L44.6467 81.2C44.2947 82.088 43.7387 82.532 42.9787 82.532C42.6427 82.532 42.3547 82.488 42.1147 82.4ZM56.5015 71.6V80H55.2775V79.04C54.8455 79.792 54.1895 80.168 53.3095 80.168C52.4775 80.168 51.7855 79.88 51.2335 79.304C50.6895 78.72 50.4175 77.96 50.4175 77.024C50.4175 76.104 50.7015 75.352 51.2695 74.768C51.8455 74.176 52.5175 73.88 53.2855 73.88C54.2455 73.88 54.9095 74.236 55.2775 74.948V71.6H56.5015ZM52.1935 78.476C52.5535 78.852 52.9935 79.04 53.5135 79.04C54.0335 79.04 54.4695 78.852 54.8215 78.476C55.1815 78.1 55.3615 77.616 55.3615 77.024C55.3615 76.432 55.1815 75.948 54.8215 75.572C54.4695 75.196 54.0335 75.008 53.5135 75.008C52.9935 75.008 52.5535 75.196 52.1935 75.572C51.8415 75.948 51.6655 76.432 51.6655 77.024C51.6655 77.616 51.8415 78.1 52.1935 78.476ZM63.2721 77.288H58.5561C58.5721 77.816 58.7481 78.252 59.0841 78.596C59.4201 78.932 59.8481 79.1 60.3681 79.1C60.8161 79.1 61.1721 78.996 61.4361 78.788C61.7081 78.572 61.9441 78.264 62.1441 77.864L63.0921 78.428C62.8041 79.012 62.4361 79.448 61.9881 79.736C61.5481 80.024 60.9961 80.168 60.3321 80.168C59.5001 80.168 58.7921 79.876 58.2081 79.292C57.6241 78.7 57.3321 77.944 57.3321 77.024C57.3321 76.104 57.6241 75.352 58.2081 74.768C58.8001 74.176 59.5281 73.88 60.3921 73.88C61.2481 73.88 61.9401 74.16 62.4681 74.72C63.0041 75.272 63.2721 75.984 63.2721 76.856V77.288ZM60.3681 74.864C59.9281 74.864 59.5441 75.004 59.2161 75.284C58.8881 75.564 58.6681 75.92 58.5561 76.352H62.1081C62.0601 75.888 61.8641 75.524 61.5201 75.26C61.1841 74.996 60.8001 74.864 60.3681 74.864ZM65.1021 75.488C65.1021 75.736 65.2221 75.932 65.4621 76.076C65.7101 76.22 66.0861 76.34 66.5901 76.436C67.2781 76.58 67.7821 76.792 68.1021 77.072C68.4301 77.352 68.5941 77.74 68.5941 78.236C68.5941 78.788 68.3861 79.248 67.9701 79.616C67.5621 79.984 67.0021 80.168 66.2901 80.168C65.6261 80.168 65.0701 80.004 64.6221 79.676C64.1741 79.34 63.8541 78.916 63.6621 78.404L64.6581 77.78C64.9861 78.676 65.5341 79.124 66.3021 79.124C66.6221 79.124 66.8901 79.048 67.1061 78.896C67.3221 78.736 67.4301 78.528 67.4301 78.272C67.4301 78.024 67.3221 77.836 67.1061 77.708C66.8901 77.572 66.5301 77.452 66.0261 77.348C64.6741 77.084 63.9981 76.484 63.9981 75.548C63.9981 75.036 64.2061 74.632 64.6221 74.336C65.0381 74.032 65.5381 73.88 66.1221 73.88C66.7381 73.88 67.2341 74.004 67.6101 74.252C67.9941 74.492 68.2941 74.86 68.5101 75.356L67.6101 75.884C67.3381 75.172 66.8501 74.816 66.1461 74.816C65.8501 74.816 65.6021 74.88 65.4021 75.008C65.2021 75.128 65.1021 75.288 65.1021 75.488ZM69.4352 80V74.048H70.6592V80H69.4352ZM69.3512 73.1V71.72H70.7432V73.1H69.3512ZM71.898 80.072L73.086 80.408C73.022 80.552 72.99 80.696 72.99 80.84C72.99 81.064 73.126 81.248 73.398 81.392C73.67 81.536 74.03 81.608 74.478 81.608C75.598 81.608 76.158 81.008 76.158 79.808V78.872C75.998 79.176 75.758 79.424 75.438 79.616C75.126 79.808 74.762 79.904 74.346 79.904C73.538 79.904 72.858 79.624 72.306 79.064C71.754 78.504 71.478 77.78 71.478 76.892C71.478 75.996 71.754 75.272 72.306 74.72C72.858 74.16 73.526 73.88 74.31 73.88C74.71 73.88 75.074 73.972 75.402 74.156C75.73 74.332 75.982 74.568 76.158 74.864V74.048H77.382V79.64C77.382 80.592 77.126 81.324 76.614 81.836C76.102 82.356 75.39 82.616 74.478 82.616C73.614 82.616 72.942 82.448 72.462 82.112C71.982 81.776 71.742 81.32 71.742 80.744C71.742 80.48 71.794 80.256 71.898 80.072ZM75.726 75.488C75.398 75.144 74.978 74.972 74.466 74.972C73.954 74.972 73.53 75.144 73.194 75.488C72.866 75.832 72.702 76.3 72.702 76.892C72.702 77.484 72.866 77.952 73.194 78.296C73.53 78.64 73.954 78.812 74.466 78.812C74.978 78.812 75.398 78.64 75.726 78.296C76.062 77.952 76.23 77.484 76.23 76.892C76.23 76.3 76.062 75.832 75.726 75.488ZM83.8113 75.956V80H82.5873V76.316C82.5873 75.908 82.4713 75.588 82.2393 75.356C82.0153 75.124 81.6913 75.008 81.2673 75.008C80.8273 75.008 80.4553 75.18 80.1513 75.524C79.8553 75.868 79.7073 76.312 79.7073 76.856V80H78.4833V74.048H79.7073V75.044C79.9233 74.684 80.2073 74.4 80.5593 74.192C80.9193 73.984 81.3113 73.88 81.7353 73.88C82.3433 73.88 82.8393 74.064 83.2233 74.432C83.6153 74.8 83.8113 75.308 83.8113 75.956ZM87.6315 79.076L90.8595 75.932C91.2515 75.54 91.5275 75.2 91.6875 74.912C91.8475 74.616 91.9275 74.296 91.9275 73.952C91.9275 73.52 91.7915 73.18 91.5195 72.932C91.2475 72.684 90.8835 72.56 90.4275 72.56C89.9875 72.56 89.6235 72.688 89.3355 72.944C89.0555 73.2 88.9155 73.552 88.9155 74C88.9155 74.184 88.9475 74.364 89.0115 74.54L87.8115 74.756C87.7155 74.508 87.6675 74.216 87.6675 73.88C87.6675 73.224 87.9275 72.652 88.4475 72.164C88.9675 71.676 89.6315 71.432 90.4395 71.432C91.2875 71.432 91.9555 71.652 92.4435 72.092C92.9315 72.532 93.1755 73.096 93.1755 73.784C93.1755 74.32 93.0675 74.808 92.8515 75.248C92.6355 75.688 92.2555 76.176 91.7115 76.712L89.5755 78.824H93.1995V80H87.6315V79.076ZM100.18 72.644C100.876 73.444 101.224 74.496 101.224 75.8C101.224 77.104 100.876 78.16 100.18 78.968C99.4918 79.768 98.5998 80.168 97.5038 80.168C96.4078 80.168 95.5118 79.768 94.8158 78.968C94.1278 78.16 93.7838 77.104 93.7838 75.8C93.7838 74.496 94.1278 73.444 94.8158 72.644C95.5118 71.836 96.4078 71.432 97.5038 71.432C98.5998 71.432 99.4918 71.836 100.18 72.644ZM95.7518 78.14C96.1998 78.708 96.7838 78.992 97.5038 78.992C98.2238 78.992 98.8078 78.708 99.2558 78.14C99.7038 77.564 99.9278 76.784 99.9278 75.8C99.9278 74.816 99.7038 74.04 99.2558 73.472C98.8078 72.896 98.2238 72.608 97.5038 72.608C96.7838 72.608 96.1998 72.896 95.7518 73.472C95.3038 74.04 95.0798 74.816 95.0798 75.8C95.0798 76.784 95.3038 77.564 95.7518 78.14ZM101.707 79.076L104.935 75.932C105.327 75.54 105.603 75.2 105.763 74.912C105.923 74.616 106.003 74.296 106.003 73.952C106.003 73.52 105.867 73.18 105.595 72.932C105.323 72.684 104.959 72.56 104.503 72.56C104.063 72.56 103.699 72.688 103.411 72.944C103.131 73.2 102.991 73.552 102.991 74C102.991 74.184 103.023 74.364 103.087 74.54L101.887 74.756C101.791 74.508 101.743 74.216 101.743 73.88C101.743 73.224 102.003 72.652 102.523 72.164C103.043 71.676 103.707 71.432 104.515 71.432C105.363 71.432 106.031 71.652 106.519 72.092C107.007 72.532 107.251 73.096 107.251 73.784C107.251 74.32 107.143 74.808 106.927 75.248C106.711 75.688 106.331 76.176 105.787 76.712L103.651 78.824H107.275V80H101.707V79.076ZM108.004 76.964L109.216 77.252C109.184 77.348 109.168 77.476 109.168 77.636C109.168 78.036 109.324 78.372 109.636 78.644C109.956 78.908 110.348 79.04 110.812 79.04C111.324 79.04 111.728 78.908 112.024 78.644C112.32 78.38 112.468 78.004 112.468 77.516C112.468 76.996 112.26 76.612 111.844 76.364C111.436 76.116 110.892 75.992 110.212 75.992V75.008C110.852 75.008 111.328 74.884 111.64 74.636C111.952 74.38 112.108 74.048 112.108 73.64C112.108 73.288 111.98 73.012 111.724 72.812C111.476 72.612 111.144 72.512 110.728 72.512C110.344 72.512 110.02 72.62 109.756 72.836C109.492 73.052 109.36 73.34 109.36 73.7C109.36 73.812 109.38 73.928 109.42 74.048L108.244 74.276C108.172 74.076 108.136 73.872 108.136 73.664C108.136 73.048 108.376 72.524 108.856 72.092C109.344 71.652 109.972 71.432 110.74 71.432C111.564 71.432 112.204 71.624 112.66 72.008C113.124 72.392 113.356 72.884 113.356 73.484C113.356 73.908 113.236 74.296 112.996 74.648C112.764 74.992 112.452 75.236 112.06 75.38C112.572 75.532 112.984 75.788 113.296 76.148C113.608 76.5 113.764 76.948 113.764 77.492C113.764 78.3 113.484 78.948 112.924 79.436C112.372 79.924 111.668 80.168 110.812 80.168C109.908 80.168 109.192 79.924 108.664 79.436C108.136 78.94 107.872 78.352 107.872 77.672C107.872 77.4 107.916 77.164 108.004 76.964Z" fill="white" style="fill:white;fill:white;fill-opacity:1;"/>
</svg>
