<svg width="31" height="30" viewBox="0 0 31 30" fill="none" xmlns="http://www.w3.org/2000/svg">
<path d="M14.1427 1.33881C14.5926 0.0555783 16.4074 0.055578 16.8573 1.33881L19.083 7.68616C19.6551 9.31778 20.9306 10.6056 22.5567 11.1933L29.2572 13.615C30.5231 14.0725 30.5231 15.8629 29.2572 16.3204L22.5567 18.7421C20.9306 19.3298 19.6551 20.6176 19.083 22.2492L16.8573 28.5966C16.4074 29.8798 14.5926 29.8798 14.1427 28.5966L11.917 22.2492C11.3449 20.6176 10.0694 19.3298 8.4433 18.7421L1.74281 16.3204C0.476863 15.8629 0.476861 14.0725 1.7428 13.615L8.4433 11.1933C10.0694 10.6056 11.3449 9.31778 11.917 7.68616L14.1427 1.33881Z" fill="white" style="fill:white;fill:white;fill-opacity:1;"/>
</svg>
